<svg width="98" height="125" viewBox="0 0 98 125" fill="none" xmlns="http://www.w3.org/2000/svg">
<path d="M97.9238 92.3131C97.9238 91.7411 97.902 91.1637 97.7169 90.5916L86.828 57.9048C86.5759 57.1811 86.174 56.5189 85.6486 55.9613C85.1232 55.4037 84.4862 54.9632 83.7791 54.6688C86.1395 51.5329 87.2907 47.6506 87.0217 43.7341C86.7527 39.8175 85.0814 36.1293 82.3146 33.346L49 0L15.6746 33.346C12.912 36.1315 11.2433 39.8186 10.9734 43.7336C10.7035 47.6486 11.8504 51.5301 14.2046 54.6688C13.4985 54.9639 12.8625 55.4046 12.3381 55.9622C11.8137 56.5197 11.4127 57.1817 11.1611 57.9048L0.272222 90.5916C0.111853 91.1507 0.0420064 91.7319 0.0653338 92.3131C4.56348e-07 92.3131 0 119.552 0 119.552C0 120.997 0.573609 122.383 1.59464 123.404C2.61567 124.426 4.00049 125 5.44444 125H92.5556C93.9995 125 95.3843 124.426 96.4054 123.404C97.4264 122.383 98 120.997 98 119.552C98 119.552 98 92.3131 97.9238 92.3131ZM23.373 41.0493L49 15.4064L74.627 41.0493C75.6477 42.0709 76.2211 43.4563 76.2211 44.9008C76.2211 46.3454 75.6477 47.7308 74.627 48.7524C73.5893 49.7416 72.211 50.2934 70.7778 50.2934C69.3446 50.2934 67.9663 49.7416 66.9286 48.7524L54.4444 36.2606V67.798C54.4444 69.2428 53.8708 70.6285 52.8498 71.6502C51.8288 72.6718 50.444 73.2458 49 73.2458C47.556 73.2458 46.1712 72.6718 45.1502 71.6502C44.1292 70.6285 43.5556 69.2428 43.5556 67.798V36.2606L31.0714 48.7524C30.0337 49.7416 28.6554 50.2934 27.2222 50.2934C25.789 50.2934 24.4107 49.7416 23.373 48.7524C22.3523 47.7308 21.7789 46.3454 21.7789 44.9008C21.7789 43.4563 22.3523 42.0709 23.373 41.0493ZM20.2588 65.0741H32.6667V67.798C32.6667 76.8087 39.9949 84.1414 49 84.1414C58.0051 84.1414 65.3333 76.8087 65.3333 67.798V65.0741H77.7412L86.8117 92.3131H11.1774L20.2588 65.0741ZM10.8889 114.104V97.7609H87.1111V114.104H10.8889Z" fill="#FEF9D0" fill-opacity="0.1"/>
</svg>
