<svg width="32" height="32" viewBox="0 0 32 32" fill="none" xmlns="http://www.w3.org/2000/svg">
<path d="M31.984 7.27679C31.9691 6.59042 31.9141 5.90552 31.8192 5.22559C31.7045 4.62089 31.5091 4.03432 31.2384 3.48159C30.6464 2.31227 29.697 1.36223 28.528 0.769587C27.9787 0.500345 27.396 0.305561 26.7952 0.190387C26.11 0.0937999 25.4198 0.0377025 24.728 0.0223869C24.4352 0.0111869 24.056 0.00638695 23.88 0.00638695L8.1232 0.00158691C7.9472 0.00158691 7.568 0.0063869 7.2752 0.0175869C6.58884 0.0324676 5.90393 0.0874949 5.224 0.182387C4.6193 0.297107 4.03274 0.49245 3.48 0.763187C2.31068 1.35514 1.36065 2.30462 0.768 3.47359C0.498758 4.02287 0.303974 4.60561 0.1888 5.20639C0.0916776 5.89152 0.035046 6.58179 0.0192001 7.27359C0.00960013 7.56639 0.00320015 7.94559 0.00320015 8.12159L0 23.8784C0 24.0544 0.00479998 24.4336 0.016 24.7264C0.0308807 25.4127 0.0859079 26.0977 0.1808 26.7776C0.29552 27.3823 0.490863 27.9689 0.7616 28.5216C1.35356 29.6909 2.30303 30.6409 3.472 31.2336C4.02128 31.5028 4.60402 31.6976 5.2048 31.8128C5.88997 31.9094 6.58023 31.9655 7.272 31.9808C7.5648 31.992 7.944 31.9968 8.12 31.9968L23.8768 32C24.0528 32 24.432 31.9952 24.7248 31.984C25.4112 31.9691 26.0961 31.9141 26.776 31.8192C27.3807 31.7045 27.9673 31.5091 28.52 31.2384C29.6899 30.6467 30.6405 29.6972 31.2336 28.528C31.5028 27.9787 31.6976 27.396 31.8128 26.7952C31.9099 26.1101 31.9666 25.4198 31.9824 24.728C31.992 24.4352 31.9984 24.056 31.9984 23.88L32 8.12479C32 7.94879 31.9952 7.56959 31.984 7.27679ZM16.3472 27.1328H16.3424C14.4376 27.1342 12.5631 26.6566 10.8912 25.744L4.8432 27.3296L6.4624 21.4208C5.20872 19.2453 4.7078 16.717 5.03728 14.2278C5.36676 11.7386 6.50825 9.42771 8.28476 7.65332C10.0613 5.87892 12.3736 4.74018 14.8631 4.41366C17.3527 4.08714 19.8804 4.59107 22.0544 5.84734C24.2284 7.1036 25.9272 9.042 26.8874 11.362C27.8477 13.682 28.0157 16.254 27.3654 18.6792C26.7152 21.1044 25.283 23.2474 23.2909 24.7758C21.2988 26.3042 18.8581 27.1327 16.3472 27.1328Z" fill="#2F5B44"/>
<path d="M16.3519 6.24305C14.6577 6.24256 12.9942 6.69598 11.5345 7.55615C10.0749 8.41633 8.87232 9.65186 8.05191 11.1342C7.2315 12.6166 6.82322 14.2917 6.86951 15.9854C6.9158 17.679 7.41498 19.3293 8.31514 20.7647L8.54074 21.1231L7.58234 24.6207L11.1711 23.6799L11.5167 23.8847C12.9771 24.7512 14.6442 25.2078 16.3423 25.2063H16.3471C18.862 25.2067 21.2741 24.2081 23.0527 22.4301C24.8313 20.6521 25.8307 18.2403 25.8311 15.7255C25.8316 13.2106 24.8329 10.7985 23.0549 9.01992C21.2769 7.24132 18.8652 6.24188 16.3503 6.24146L16.3519 6.24305ZM21.9263 19.7951C21.7169 20.1417 21.4379 20.4411 21.1068 20.6743C20.7758 20.9076 20.4 21.0696 20.0031 21.1503C19.4042 21.2532 18.7895 21.2148 18.2079 21.0383C17.6561 20.8672 17.114 20.6664 16.5839 20.4367C14.6155 19.4488 12.9377 17.9662 11.7151 16.1343C11.048 15.2863 10.6431 14.262 10.5503 13.1871C10.5429 12.7434 10.6279 12.3031 10.7998 11.8941C10.9716 11.4851 11.2267 11.1162 11.5487 10.8111C11.6443 10.7028 11.761 10.6152 11.8918 10.5539C12.0225 10.4925 12.1644 10.4586 12.3087 10.4543C12.4975 10.4543 12.6879 10.4543 12.8543 10.4639C13.0303 10.4719 13.2639 10.3967 13.4943 10.9535C13.7343 11.5231 14.3039 12.9263 14.3743 13.0687C14.4193 13.1434 14.445 13.2281 14.4491 13.3152C14.4533 13.4023 14.4359 13.4891 14.3983 13.5679C14.3269 13.7392 14.2309 13.8993 14.1135 14.0431C13.9695 14.2095 13.8143 14.4143 13.6863 14.5423C13.5423 14.6847 13.3951 14.8383 13.5599 15.1231C13.9886 15.8555 14.5229 16.5208 15.1455 17.0975C15.8225 17.6977 16.5982 18.1762 17.4383 18.5119C17.7231 18.6559 17.8895 18.6303 18.0559 18.4399C18.2223 18.2495 18.7679 17.6079 18.9583 17.3231C19.1487 17.0383 19.3375 17.0863 19.5983 17.1807C19.8591 17.2751 21.2623 17.9647 21.5471 18.1087C21.8319 18.2527 22.0223 18.3215 22.0927 18.4399C22.1696 18.8982 22.1118 19.369 21.9263 19.7951Z" fill="#2F5B44"/>
</svg>
