<svg width="32" height="35" viewBox="0 0 32 35" fill="none" xmlns="http://www.w3.org/2000/svg">
<path d="M16 0C9.832 0 4.8 5.00341 4.8 11.1364C4.8 14.9705 6.768 18.375 9.7504 20.3843C4.0432 22.8184 0 28.4502 0 35H3.2C3.2 27.9523 8.912 22.2727 16 22.2727C23.088 22.2727 28.8 27.9523 28.8 35H32C32 28.4502 27.9568 22.82 22.2496 20.3827C23.7722 19.3614 25.0196 17.9844 25.8827 16.3724C26.7457 14.7604 27.198 12.9626 27.2 11.1364C27.2 5.00341 22.168 0 16 0ZM16 3.18182C20.4368 3.18182 24 6.72477 24 11.1364C24 15.548 20.4368 19.0909 16 19.0909C11.5632 19.0909 8 15.548 8 11.1364C8 6.72477 11.5632 3.18182 16 3.18182Z" fill="#2F5B44"/>
</svg>
