<svg width="20" height="13" viewBox="0 0 20 13" fill="none" xmlns="http://www.w3.org/2000/svg">
<path d="M19.5598 1.18411C19.2778 0.90223 18.8954 0.743878 18.4967 0.743878C18.098 0.743878 17.7157 0.90223 17.4337 1.18411L9.99092 8.62688L2.54815 1.18411C2.26457 0.910217 1.88476 0.758664 1.49052 0.762089C1.09629 0.765515 0.719167 0.923645 0.440391 1.20242C0.161612 1.4812 0.00348182 1.85832 5.61877e-05 2.25256C-0.00336944 2.64679 0.148185 3.0266 0.422076 3.31018L8.92788 11.816C9.20985 12.0979 9.59222 12.2562 9.99092 12.2562C10.3896 12.2562 10.772 12.0979 11.054 11.816L19.5598 3.31019C19.8416 3.02822 20 2.64585 20 2.24715C20 1.84845 19.8416 1.46607 19.5598 1.18411Z" fill="#FEF9D0"/>
</svg>
