<svg width="36" height="32" viewBox="0 0 36 32" fill="none" xmlns="http://www.w3.org/2000/svg">
<path d="M28.8 21.3333H25.2V24.8889H28.8M28.8 14.2222H25.2V17.7778H28.8M32.4 28.4444H18V24.8889H21.6V21.3333H18V17.7778H21.6V14.2222H18V10.6667H32.4M14.4 7.11111H10.8V3.55556H14.4M14.4 14.2222H10.8V10.6667H14.4M14.4 21.3333H10.8V17.7778H14.4M14.4 28.4444H10.8V24.8889H14.4M7.2 7.11111H3.6V3.55556H7.2M7.2 14.2222H3.6V10.6667H7.2M7.2 21.3333H3.6V17.7778H7.2M7.2 28.4444H3.6V24.8889H7.2M18 7.11111V0H0V32H36V7.11111H18Z" fill="#FEF9D0"/>
</svg>
