<svg width="18" height="23" viewBox="0 0 18 23" fill="none" xmlns="http://www.w3.org/2000/svg">
<path d="M9 12.4275C10.6569 12.4275 12 11.0843 12 9.42749C12 7.77064 10.6569 6.42749 9 6.42749C7.34315 6.42749 6 7.77064 6 9.42749C6 11.0843 7.34315 12.4275 9 12.4275Z" stroke="#FEF9D0" stroke-width="2" stroke-linecap="round" stroke-linejoin="round"/>
<path d="M9 1.42749C6.87827 1.42749 4.84344 2.27035 3.34315 3.77064C1.84285 5.27093 1 7.30576 1 9.42749C1 11.3195 1.402 12.5575 2.5 13.9275L9 21.4275L15.5 13.9275C16.598 12.5575 17 11.3195 17 9.42749C17 7.30576 16.1571 5.27093 14.6569 3.77064C13.1566 2.27035 11.1217 1.42749 9 1.42749Z" stroke="#FEF9D0" stroke-width="2" stroke-linecap="round" stroke-linejoin="round"/>
</svg>
