<svg width="98" height="99" viewBox="0 0 98 99" fill="none" xmlns="http://www.w3.org/2000/svg">
<path d="M85 40.9486C85 23.7046 85 15.0871 79.726 9.72756C74.452 4.36806 65.9695 4.37256 49 4.37256H40C23.0305 4.37256 14.5435 4.37256 9.274 9.72756C4.0045 15.0826 4 23.7046 4 40.9486C4 58.1926 4 66.8101 9.274 72.1696C11.389 74.3161 14.017 75.6031 17.5 76.3726" stroke="#2F5B44" stroke-width="8" stroke-linecap="round" stroke-linejoin="round"/>
<path d="M94 74.1226C94 65.6851 94 61.4686 91.8535 58.5076C91.1597 57.5526 90.3199 56.7129 89.365 56.0191C86.404 53.8726 82.1875 53.8726 73.75 53.8726H51.25C42.8125 53.8726 38.596 53.8726 35.635 56.0191C34.6801 56.7129 33.8403 57.5526 33.1465 58.5076C31 61.4731 31 65.6896 31 74.1226C31 82.5556 31 86.7766 33.1465 89.7376C33.8417 90.6928 34.683 91.5326 35.6395 92.2261C38.596 94.3726 42.8125 94.3726 51.25 94.3726H73.75C82.1875 94.3726 86.404 94.3726 89.365 92.2261C90.3199 91.5322 91.1597 90.6925 91.8535 89.7376C94 86.7766 94 82.5601 94 74.1226Z" stroke="#2F5B44" stroke-width="8" stroke-linecap="round" stroke-linejoin="round"/>
<path d="M69.25 67.3726L73.39 70.9411C75.1315 72.4396 76 73.1911 76 74.1226C76 75.0541 75.1315 75.8056 73.39 77.3041L69.25 80.8726M55.75 67.3726L51.61 70.9411C49.8685 72.4396 49 73.1911 49 74.1226C49 75.0541 49.8685 75.8056 51.61 77.3041L55.75 80.8726M6.25 22.3726H82.75" stroke="#2F5B44" stroke-width="8" stroke-linecap="round" stroke-linejoin="round"/>
</svg>
