<svg width="32" height="32" viewBox="0 0 32 32" fill="none" xmlns="http://www.w3.org/2000/svg">
<path fill-rule="evenodd" clip-rule="evenodd" d="M4.57143 0C3.35901 0 2.19625 0.481631 1.33894 1.33894C0.481631 2.19625 0 3.35901 0 4.57143V27.4286C0 28.641 0.481631 29.8038 1.33894 30.6611C2.19625 31.5184 3.35901 32 4.57143 32H27.4286C28.641 32 29.8038 31.5184 30.6611 30.6611C31.5184 29.8038 32 28.641 32 27.4286V4.57143C32 3.35901 31.5184 2.19625 30.6611 1.33894C29.8038 0.481631 28.641 0 27.4286 0H4.57143ZM7.09029 9.82171C7.81471 9.82171 8.50945 9.53394 9.0217 9.0217C9.53394 8.50945 9.82171 7.81471 9.82171 7.09029C9.82171 6.36587 9.53394 5.67112 9.0217 5.15887C8.50945 4.64663 7.81471 4.35886 7.09029 4.35886C6.36587 4.35886 5.67112 4.64663 5.15887 5.15887C4.64663 5.67112 4.35886 6.36587 4.35886 7.09029C4.35886 7.81471 4.64663 8.50945 5.15887 9.0217C5.67112 9.53394 6.36587 9.82171 7.09029 9.82171ZM9.376 27.0011V11.9634H4.80457V27.0011H9.376ZM12.4114 11.9634H16.9829V13.9771C17.6571 12.9211 19.1383 11.4994 21.8926 11.4994C25.1794 11.4994 26.9646 13.6777 26.9646 17.8217C26.9646 18.0206 26.9829 18.928 26.9829 18.928V26.9989H22.4114V18.9303C22.4114 17.8217 22.1783 15.6434 19.7143 15.6434C17.248 15.6434 17.04 18.3817 16.9829 20.1737V26.9989H12.4114V11.9634Z" fill="#FEF9D0"/>
</svg>
