<svg width="32" height="32" viewBox="0 0 32 32" fill="none" xmlns="http://www.w3.org/2000/svg">
<path d="M10 23.001C11.6562 23.001 13 24.3448 13 26.0011V27.0012L17.5312 23.601C18.05 23.2135 18.6812 23.001 19.3312 23.001H28C28.55 23.001 29 22.551 29 22.0009V4.00017C29 3.45015 28.55 3.00013 28 3.00013H4C3.45 3.00013 3 3.45015 3 4.00017V22.0009C3 22.551 3.45 23.001 4 23.001H10ZM13 30.7513L12.9875 30.7638L12.6687 31.0013L11.6 31.8014C11.3 32.0264 10.8938 32.0639 10.55 31.8951C10.2063 31.7264 10 31.3826 10 31.0013V26.0011H4C1.79375 26.0011 0 24.2073 0 22.0009V4.00017C0 1.79383 1.79375 0 4 0H28C30.2062 0 32 1.79383 32 4.00017V22.0009C32 24.2073 30.2062 26.0011 28 26.0011H19.3312L13 30.7513Z" fill="#FEF9D0"/>
</svg>
