<svg width="32" height="30" viewBox="0 0 32 30" fill="none" xmlns="http://www.w3.org/2000/svg">
<path fill-rule="evenodd" clip-rule="evenodd" d="M4.07436 1.2864C6.07131 -0.675723 9.35965 -0.32708 11.0317 1.88153L13.1025 4.61229C14.4644 6.40901 14.343 8.91924 12.7267 10.5068L12.3362 10.8927C12.2919 11.0547 12.2874 11.2248 12.3231 11.3889C12.4265 12.0505 12.986 13.4516 15.3292 15.7542C17.6724 18.0569 19.0999 18.6082 19.7793 18.712C19.9504 18.746 20.1272 18.7411 20.2961 18.6974L20.9656 18.0391C22.403 16.6283 24.6084 16.364 26.3871 17.3191L29.5212 19.0055C32.2073 20.4455 32.885 24.0519 30.6862 26.2135L28.3545 28.5032C27.6194 29.2248 26.6316 29.8264 25.4272 29.9383C22.4572 30.2124 15.5376 29.8621 8.26354 22.7157C1.4752 16.0445 0.172337 10.2262 0.00660785 7.35926C-0.0754363 5.90956 0.617017 4.68364 1.49981 3.81771L4.07436 1.2864ZM9.06265 3.33934C8.23072 2.24152 6.68172 2.15395 5.80877 3.01178L3.23259 5.54146C2.69109 6.07334 2.43183 6.66036 2.46465 7.22143C2.59592 9.49976 3.64609 14.7489 9.99959 20.992C16.6649 27.54 22.8198 27.7362 25.1991 27.5156C25.6848 27.4719 26.1672 27.2221 26.6185 26.7794L28.9485 24.4881C29.8969 23.5573 29.6886 21.8612 28.3463 21.1412L25.2122 19.4563C24.3458 18.9926 23.3318 19.145 22.7017 19.7644L21.9551 20.499L21.0854 19.6363C21.9551 20.499 21.9534 20.5006 21.9518 20.5006L21.9501 20.5039L21.9452 20.5088L21.9337 20.5185L21.9091 20.5412C21.8399 20.6047 21.7652 20.6622 21.686 20.7131C21.5547 20.799 21.3808 20.8947 21.1625 20.9741C20.7195 21.1379 20.132 21.2255 19.4068 21.1152C17.9841 20.8996 16.0988 19.9412 13.5931 17.4796C11.0891 15.018 10.1112 13.1662 9.89129 11.7619C9.77807 11.0451 9.86832 10.4646 10.0357 10.0268C10.1278 9.78041 10.2597 9.55041 10.4262 9.34571L10.4787 9.28896L10.5017 9.26463L10.5115 9.2549L10.5165 9.25004L10.5198 9.2468L10.9923 8.78302C11.6946 8.0906 11.7931 6.94414 11.1318 6.0701L9.06265 3.33934Z" fill="#FEF9D0"/>
</svg>
