<svg width="85" height="91" viewBox="0 0 85 91" fill="none" xmlns="http://www.w3.org/2000/svg">
<path d="M59.0625 45.3726C58.8139 45.3726 58.5754 45.4713 58.3996 45.6471C58.2238 45.823 58.125 46.0614 58.125 46.3101V60.3726C58.125 61.3671 58.5201 62.3209 59.2233 63.0242C59.9266 63.7275 60.8804 64.1226 61.875 64.1226H63.75C66.7337 64.1226 69.5952 62.9373 71.705 60.8275C73.8147 58.7177 75 55.8562 75 52.8726V46.3101C75 46.0614 74.9012 45.823 74.7254 45.6471C74.5496 45.4713 74.3111 45.3726 74.0625 45.3726H59.0625Z" fill="#FEF9D0"/>
<path d="M46.8379 50.9976C46.8379 49.5057 46.2453 48.075 45.1904 47.0201C44.1355 45.9652 42.7047 45.3726 41.2129 45.3726C39.721 45.3726 38.2903 45.9652 37.2354 47.0201C36.1805 48.075 35.5879 49.5057 35.5879 50.9976V79.1226C35.5931 79.3162 35.5382 79.5067 35.4308 79.6678C35.3233 79.829 35.1686 79.9529 34.9879 80.0226C34.8025 80.0781 34.6051 80.0794 34.419 80.0262C34.2329 79.9731 34.0659 79.8677 33.9379 79.7226L29.1379 73.9851C28.7773 73.5519 28.3237 73.2055 27.8108 72.9718C27.2979 72.7381 26.7389 72.623 26.1754 72.6351H22.4254C21.7909 72.6441 21.1691 72.814 20.6182 73.1288C20.0673 73.4436 19.6053 73.893 19.2754 74.4351C18.9225 74.9968 18.7354 75.6467 18.7354 76.3101C18.7354 76.9734 18.9225 77.6233 19.2754 78.1851L25.6879 89.8851C25.7718 90.0305 25.8918 90.1517 26.0364 90.2372C26.1809 90.3226 26.345 90.3692 26.5129 90.3726H66.6754C66.8981 90.3681 67.1126 90.2876 67.2832 90.1443C67.4537 90.001 67.5701 89.8037 67.6129 89.5851L69.3379 78.0726C69.4423 77.29 69.281 76.4951 68.8798 75.8151C68.4787 75.1352 67.8608 74.6096 67.1254 74.3226L47.4754 67.2726C47.2907 67.2044 47.1309 67.082 47.0172 66.9214C46.9034 66.7607 46.8409 66.5694 46.8379 66.3726V50.9976ZM84.3754 7.87256C84.3754 5.88343 83.5852 3.97578 82.1787 2.56926C80.7722 1.16273 78.8645 0.372559 76.8754 0.372559L65.6254 0.372559C63.6363 0.372559 61.7286 1.16273 60.3221 2.56926C58.9156 3.97578 58.1254 5.88343 58.1254 7.87256V32.2476C58.1254 34.2367 58.9156 36.1443 60.3221 37.5509C61.7286 38.9574 63.6363 39.7476 65.6254 39.7476H76.8754C78.8645 39.7476 80.7722 38.9574 82.1787 37.5509C83.5852 36.1443 84.3754 34.2367 84.3754 32.2476V7.87256ZM63.7504 8.81006C63.7504 8.56142 63.8492 8.32296 64.025 8.14715C64.2008 7.97133 64.4393 7.87256 64.6879 7.87256H77.8129C78.0615 7.87256 78.3 7.97133 78.4758 8.14715C78.6516 8.32296 78.7504 8.56142 78.7504 8.81006V29.4351C78.7504 29.6837 78.6516 29.9222 78.4758 30.098C78.3 30.2738 78.0615 30.3726 77.8129 30.3726H64.6879C64.4393 30.3726 64.2008 30.2738 64.025 30.098C63.8492 29.9222 63.7504 29.6837 63.7504 29.4351V8.81006Z" fill="#FEF9D0"/>
<path d="M24.375 64.1226C25.3696 64.1226 26.3234 63.7275 27.0266 63.0242C27.7299 62.3209 28.125 61.3671 28.125 60.3726C28.125 59.378 27.7299 58.4242 27.0266 57.7209C26.3234 57.0176 25.3696 56.6226 24.375 56.6226H18.75C18.2527 56.6226 17.7758 56.425 17.4242 56.0734C17.0725 55.7218 16.875 55.2448 16.875 54.7476V20.9976C16.875 20.5003 17.0725 20.0234 17.4242 19.6717C17.7758 19.3201 18.2527 19.1226 18.75 19.1226H46.875C47.8696 19.1226 48.8234 18.7275 49.5266 18.0242C50.2299 17.3209 50.625 16.3671 50.625 15.3726C50.625 14.378 50.2299 13.4242 49.5266 12.7209C48.8234 12.0176 47.8696 11.6226 46.875 11.6226H11.25C8.26631 11.6226 5.40483 12.8078 3.29505 14.9176C1.18526 17.0274 0 19.8889 0 22.8726V52.8726C0 55.8562 1.18526 58.7177 3.29505 60.8275C5.40483 62.9373 8.26631 64.1226 11.25 64.1226H24.375Z" fill="#FEF9D0"/>
</svg>
