<svg width="100" height="91" viewBox="0 0 100 91" fill="none" xmlns="http://www.w3.org/2000/svg">
<path d="M31.8161 0.372559C23.3779 0.372559 15.2854 3.74064 9.31872 9.73587C3.35204 15.7311 0 23.8624 0 32.3409C0 40.8194 3.35204 48.9507 9.31872 54.9459C15.2854 60.9411 23.3779 64.3092 31.8161 64.3092H36.6794C36.2443 61.2803 36.2443 58.2043 36.6794 55.1754H31.8161C25.7888 55.1754 20.0084 52.7696 15.7465 48.4873C11.4846 44.205 9.09031 38.397 9.09031 32.3409C9.09031 26.2848 11.4846 20.4768 15.7465 16.1944C20.0084 11.9121 25.7888 9.50637 31.8161 9.50637H68.1773C71.5477 9.50568 74.8759 10.2582 77.9211 11.7095C80.9662 13.1607 83.652 15.2744 85.7838 17.8973C87.9157 20.5202 89.4402 23.5867 90.247 26.8747C91.0538 30.1626 91.1227 33.5898 90.4486 36.9078C93.128 39.5448 95.3222 42.637 96.93 46.0416C99.2305 41.1684 100.267 35.7896 99.9417 30.4058C99.6167 25.0221 97.9414 19.8085 95.0717 15.2503C92.2019 10.6922 88.231 6.93766 83.5286 4.33634C78.8263 1.73502 73.5453 0.371446 68.1773 0.372559H31.8161ZM45.4516 59.7423C45.4524 56.182 46.2818 52.6712 47.8735 49.4904C49.4652 46.3095 51.7751 43.5467 54.6187 41.4225C57.4624 39.2984 60.7609 37.8718 64.251 37.2567C67.7411 36.6416 71.3259 36.855 74.7193 37.8799C78.1127 38.9047 81.2205 40.7127 83.7946 43.1594C86.3687 45.606 88.3378 48.6236 89.5446 51.9711C90.7513 55.3185 91.1623 58.9032 90.7448 62.4387C90.3272 65.9742 89.0927 69.3626 87.1397 72.3333L98.6617 83.9149L92.2348 90.3726L80.7083 78.7955C77.2829 81.0704 73.3081 82.3703 69.2063 82.5571C65.1045 82.7439 61.0289 81.8106 57.4127 79.8563C53.7966 77.9021 50.7749 75 48.6688 71.4584C46.5627 67.9168 45.4509 63.868 45.4516 59.7423Z" fill="#2F5B44"/>
</svg>
