<svg width="90" height="91" viewBox="0 0 90 91" fill="none" xmlns="http://www.w3.org/2000/svg">
<path fill-rule="evenodd" clip-rule="evenodd" d="M0 45.3726C0 20.5203 20.1477 0.372559 45 0.372559C69.8523 0.372559 90 20.5203 90 45.3726C90 70.2248 69.8523 90.3726 45 90.3726C20.1477 90.3726 0 70.2248 0 45.3726ZM56.4545 34.7362C55.8036 33.8682 54.8344 33.2944 53.7604 33.1409C52.6863 32.9875 51.5953 33.267 50.7273 33.918C49.8593 34.569 49.2855 35.5381 49.132 36.6122C48.9786 37.6863 49.2581 38.7773 49.9091 39.6453L54.2045 45.3726L49.9091 51.0998C49.2581 51.9678 48.9786 53.0588 49.132 54.1329C49.2855 55.207 49.8593 56.1761 50.7273 56.8271C51.5953 57.4781 52.6863 57.7576 53.7604 57.6042C54.8344 57.4507 55.8036 56.8769 56.4545 56.0089L59.3182 52.1921L62.1818 56.0089C62.8328 56.8769 63.8019 57.4507 64.876 57.6042C65.4078 57.6801 65.9494 57.6506 66.4698 57.5173C66.9902 57.384 67.4793 57.1494 67.9091 56.8271C68.3389 56.5048 68.701 56.1009 68.9747 55.6387C69.2484 55.1764 69.4284 54.6647 69.5043 54.1329C69.5803 53.6011 69.5508 53.0595 69.4175 52.5391C69.2841 52.0187 69.0496 51.5296 68.7273 51.0998L64.4318 45.3726L68.7273 39.6453C69.3783 38.7773 69.6578 37.6863 69.5043 36.6122C69.3509 35.5381 68.7771 34.569 67.9091 33.918C67.4793 33.5957 66.9902 33.3611 66.4698 33.2278C65.9494 33.0945 65.4078 33.065 64.876 33.1409C63.8019 33.2944 62.8328 33.8682 62.1818 34.7362L59.3182 38.553L56.4545 34.7362ZM28.6364 37.1907C28.6364 36.1058 28.2054 35.0652 27.4382 34.298C26.671 33.5308 25.6304 33.0998 24.5455 33.0998C23.4605 33.0998 22.4199 33.5308 21.6527 34.298C20.8856 35.0652 20.4545 36.1058 20.4545 37.1907V45.3726C20.4545 47.3894 21.0273 50.3266 22.86 52.8753C24.8482 55.6407 28.1209 57.6453 32.7273 57.6453C37.3336 57.6453 40.6064 55.6326 42.5945 52.8753C44.4273 50.3266 45 47.3935 45 45.3726V37.1907C45 36.1058 44.569 35.0652 43.8018 34.298C43.0346 33.5308 41.9941 33.0998 40.9091 33.0998C39.8241 33.0998 38.7836 33.5308 38.0164 34.298C37.2492 35.0652 36.8182 36.1058 36.8182 37.1907V45.3726C36.8182 46.0803 36.5727 47.238 35.9509 48.0971C35.4845 48.7476 34.6664 49.4635 32.7273 49.4635C30.7882 49.4635 29.97 48.7476 29.5036 48.0971C28.9593 47.2909 28.6582 46.3451 28.6364 45.3726V37.1907Z" fill="#FEF9D0"/>
</svg>
