<svg width="100" height="91" viewBox="0 0 100 91" fill="none" xmlns="http://www.w3.org/2000/svg">
<path fill-rule="evenodd" clip-rule="evenodd" d="M77.5 0.372559C79.0525 0.372559 80.5836 0.73401 81.9721 1.42829C83.3607 2.12256 84.5685 3.1306 85.5 4.37256L98.94 22.2926C99.6129 23.1773 99.9718 24.2611 99.96 25.3726H100V30.3726C100 35.2443 98.2224 39.9487 95 43.6026V80.3726C95 83.0247 93.9464 85.5683 92.0711 87.4436C90.1957 89.319 87.6522 90.3726 85 90.3726H15C12.3478 90.3726 9.8043 89.319 7.92893 87.4436C6.05357 85.5683 5 83.0247 5 80.3726V43.6026C1.77762 39.9487 -0.00030284 35.2443 3.86915e-08 30.3726V25.3726H0.0399995C0.0281846 24.2611 0.387089 23.1773 1.06 22.2926L14.5 4.37256C15.4315 3.1306 16.6393 2.12256 18.0279 1.42829C19.4164 0.73401 20.9475 0.372559 22.5 0.372559H77.5ZM65 43.6026C63.1231 45.7305 60.8148 47.4346 58.2286 48.6019C55.6424 49.7691 52.8374 50.3727 50 50.3726C47.1626 50.3727 44.3576 49.7691 41.7714 48.6019C39.1852 47.4346 36.8769 45.7305 35 43.6026C32.7006 46.2175 29.7568 48.185 26.4612 49.3095C23.1657 50.434 19.6332 50.6764 16.215 50.0126L15 49.7426V80.3726H85V49.7426L83.785 50.0126C80.3663 50.6758 76.8336 50.4327 73.538 49.3072C70.2425 48.1818 67.2989 46.2184 65 43.6026ZM90 30.3726H70C69.9884 32.9675 70.9859 35.4653 72.7819 37.3383C74.5779 39.2113 77.0316 40.3129 79.6247 40.4103C82.2178 40.5076 84.7472 39.5932 86.6786 37.8601C88.61 36.127 89.792 33.711 89.975 31.1226L90 30.3726ZM60 30.3726H40C39.9884 32.9675 40.9859 35.4653 42.7819 37.3383C44.5779 39.2113 47.0316 40.3129 49.6247 40.4103C52.2178 40.5076 54.7472 39.5932 56.6786 37.8601C58.6099 36.127 59.792 33.711 59.975 31.1226L60 30.3726ZM30 30.3726H10C9.98839 32.9675 10.9859 35.4653 12.7819 37.3383C14.5779 39.2113 17.0316 40.3129 19.6247 40.4103C22.2178 40.5076 24.7472 39.5932 26.6786 37.8601C28.6099 36.127 29.792 33.711 29.975 31.1226L30 30.3726ZM77.5 10.3726H22.5L15 20.3726H85L77.5 10.3726Z" fill="#FEF9D0"/>
</svg>
