<svg width="32" height="32" viewBox="0 0 32 32" fill="none" xmlns="http://www.w3.org/2000/svg">
<path d="M31.984 7.27666C31.9691 6.5903 31.9141 5.9054 31.8192 5.22546C31.7045 4.62077 31.5091 4.0342 31.2384 3.48147C30.6464 2.31215 29.697 1.36211 28.528 0.769465C27.9787 0.500223 27.396 0.305439 26.7952 0.190265C26.11 0.0936779 25.4198 0.0375805 24.728 0.0222649C24.4352 0.0110649 24.056 0.00626488 23.88 0.00626488L8.1232 0.00146484C7.9472 0.00146484 7.568 0.00626483 7.2752 0.0174648C6.58884 0.0323455 5.90393 0.0873728 5.224 0.182265C4.6193 0.296985 4.03274 0.492328 3.48 0.763065C2.31068 1.35502 1.36065 2.3045 0.768 3.47346C0.498758 4.02275 0.303974 4.60548 0.1888 5.20626C0.0916776 5.8914 0.035046 6.58166 0.0192001 7.27347C0.00960013 7.56627 0.00320015 7.94546 0.00320015 8.12146L0 23.8783C0 24.0543 0.00479998 24.4335 0.016 24.7263C0.0308807 25.4126 0.0859079 26.0975 0.1808 26.7775C0.29552 27.3822 0.490863 27.9687 0.7616 28.5215C1.35356 29.6908 2.30303 30.6408 3.472 31.2335C4.02128 31.5027 4.60402 31.6975 5.2048 31.8127C5.88997 31.9093 6.58023 31.9653 7.272 31.9807C7.5648 31.9919 7.944 31.9967 8.12 31.9967L23.8768 31.9999C24.0528 31.9999 24.432 31.9951 24.7248 31.9839C25.4112 31.969 26.0961 31.914 26.776 31.8191C27.3807 31.7043 27.9673 31.509 28.52 31.2383C29.6899 30.6466 30.6405 29.6971 31.2336 28.5279C31.5028 27.9786 31.6976 27.3958 31.8128 26.7951C31.9099 26.1099 31.9666 25.4197 31.9824 24.7279C31.992 24.4351 31.9984 24.0559 31.9984 23.8799L32 8.12467C32 7.94867 31.9952 7.56946 31.984 7.27666ZM16.3472 27.1327H16.3424C14.4376 27.1341 12.5631 26.6565 10.8912 25.7439L4.8432 27.3295L6.4624 21.4207C5.20872 19.2452 4.7078 16.7168 5.03728 14.2277C5.36676 11.7385 6.50825 9.42759 8.28476 7.65319C10.0613 5.8788 12.3736 4.74006 14.8631 4.41354C17.3527 4.08702 19.8804 4.59095 22.0544 5.84721C24.2284 7.10348 25.9272 9.04188 26.8874 11.3619C27.8477 13.6819 28.0157 16.2539 27.3654 18.6791C26.7152 21.1043 25.283 23.2472 23.2909 24.7756C21.2988 26.304 18.8581 27.1325 16.3472 27.1327Z" fill="#FEF9D0"/>
<path d="M16.352 6.24281C14.6577 6.24232 12.9943 6.69573 11.5346 7.55591C10.0749 8.41609 8.87238 9.65161 8.05197 11.134C7.23156 12.6164 6.82328 14.2915 6.86957 15.9851C6.91586 17.6788 7.41504 19.3291 8.3152 20.7644L8.5408 21.1228L7.5824 24.6204L11.1712 23.6796L11.5168 23.8844C12.9772 24.751 14.6443 25.2075 16.3424 25.206H16.3472C18.8621 25.2064 21.2741 24.2078 23.0527 22.4298C24.8313 20.6518 25.8308 18.2401 25.8312 15.7252C25.8316 13.2103 24.833 10.7983 23.055 9.01967C21.277 7.24108 18.8653 6.24164 16.3504 6.24121L16.352 6.24281ZM21.9264 19.7948C21.717 20.1414 21.4379 20.4408 21.1069 20.6741C20.7759 20.9073 20.4001 21.0694 20.0032 21.15C19.4042 21.2529 18.7895 21.2146 18.208 21.038C17.6562 20.8669 17.1141 20.6661 16.584 20.4364C14.6156 19.4486 12.9378 17.9659 11.7152 16.134C11.048 15.2861 10.6432 14.2617 10.5504 13.1868C10.543 12.7432 10.6279 12.3029 10.7998 11.8939C10.9717 11.4848 11.2268 11.116 11.5488 10.8108C11.6444 10.7025 11.7611 10.615 11.8918 10.5536C12.0225 10.4923 12.1645 10.4584 12.3088 10.454C12.4976 10.454 12.688 10.454 12.8544 10.4636C13.0304 10.4716 13.264 10.3964 13.4944 10.9532C13.7344 11.5228 14.304 12.926 14.3744 13.0684C14.4193 13.1432 14.445 13.2279 14.4492 13.315C14.4534 13.4021 14.4359 13.4889 14.3984 13.5676C14.3269 13.7389 14.231 13.899 14.1136 14.0428C13.9696 14.2092 13.8144 14.414 13.6864 14.542C13.5424 14.6844 13.3952 14.838 13.56 15.1228C13.9887 15.8552 14.523 16.5205 15.1456 17.0972C15.8225 17.6974 16.5983 18.176 17.4384 18.5116C17.7232 18.6556 17.8896 18.63 18.056 18.4396C18.2224 18.2492 18.768 17.6076 18.9584 17.3228C19.1488 17.038 19.3376 17.086 19.5984 17.1804C19.8592 17.2748 21.2624 17.9644 21.5472 18.1084C21.832 18.2524 22.0224 18.3212 22.0928 18.4396C22.1697 18.8979 22.1119 19.3687 21.9264 19.7948Z" fill="#FEF9D0"/>
</svg>
