<svg width="142" height="166" viewBox="0 0 142 166" fill="none" xmlns="http://www.w3.org/2000/svg">
<path d="M66.8024 75.1808L10.6063 127.248V165.344H141.235V116.441H97.505L110.254 104.894C127.28 89.4295 137.792 75.4591 137.792 53.0113C137.792 37.4567 131.184 24.2313 118.812 14.8249C106.901 5.69677 90.7136 0.944336 71.9217 0.944336C39.8206 0.944336 15.0712 14.264 2.23245 38.4843L0 42.6716L46.89 66.1469L48.9386 61.9553C52.5695 54.7839 59.2668 50.4981 67.0804 50.4981C77.2248 50.4981 77.2248 55.8071 77.2248 57.7638C77.2248 61.4886 76.3866 66.1469 66.8024 75.1808Z" fill="#FEF9D0"/>
</svg>
